<svg width="644" height="678" viewBox="0 0 644 678" fill="none" xmlns="http://www.w3.org/2000/svg">
<g clip-path="url(#clip0_552_5999)">
<path d="M349.985 130.083L327.699 184.283C327.629 184.454 327.508 184.6 327.35 184.703C327.193 184.807 327.007 184.862 326.816 184.863L246.767 184.873C246.642 184.872 246.519 184.841 246.408 184.783C246.298 184.725 246.204 184.642 246.134 184.54C246.064 184.438 246.021 184.322 246.008 184.2C245.995 184.079 246.012 183.956 246.059 183.843L279.483 102.503C279.505 102.448 279.539 102.399 279.581 102.358C279.623 102.316 279.674 102.283 279.729 102.261C279.784 102.239 279.844 102.227 279.904 102.228C279.964 102.228 280.023 102.24 280.078 102.263L309.673 113.783C310.009 113.916 310.156 114.156 310.115 114.503C309.222 123.113 299.747 126.963 295.076 133.593C290.771 139.706 288.455 146.526 288.126 154.053C287.989 157.059 288.547 159.486 289.8 161.333C292.085 164.719 295.538 165.836 300.157 164.683C303.596 163.823 305.505 160.463 308.339 158.523C317.157 152.483 327.206 148.163 335.09 140.883C337.588 138.576 340.958 134.379 345.201 128.293C345.308 128.137 345.466 128.023 345.65 127.968C345.833 127.913 346.03 127.922 346.207 127.993L349.667 129.353C349.737 129.38 349.801 129.421 349.855 129.472C349.909 129.524 349.952 129.585 349.981 129.653C350.011 129.721 350.027 129.794 350.027 129.868C350.028 129.941 350.013 130.014 349.985 130.083Z" fill="#F6A935"/>
<path d="M460.768 192.843H113.452C113.237 192.843 113.062 193.013 113.062 193.223V233.743C113.062 233.953 113.237 234.123 113.452 234.123H460.768C460.984 234.123 461.158 233.953 461.158 233.743V193.223C461.158 193.013 460.984 192.843 460.768 192.843Z" fill="#F6A935"/>
<path d="M220.98 486H113.34V234.38H220.98V324.08H353.46V234.84H461.1V486H353.46V395.84H220.98V486Z" fill="#7F2D6F"/>
<path d="M225.857 56.9918C228.068 56.3052 228.013 55.9952 225.693 56.0618C206.261 56.6218 188.255 56.1818 169.952 48.7518C166.284 47.2652 163.673 45.8452 162.12 44.4918C159.153 41.9018 154.195 34.0818 160.518 31.8118C162.613 31.0652 164.594 30.8918 166.462 31.2918C187.082 35.6852 207.096 37.5985 226.504 37.0318C228.536 36.9785 232.225 36.3818 237.57 35.2418C238.227 35.1018 238.234 34.9352 237.59 34.7418C236.143 34.3118 234.192 34.5318 233.043 34.3318C222.641 32.4718 212.772 28.5352 203.438 22.5218C196.344 17.9618 188.532 10.4118 192.064 1.64183C192.731 -0.0181657 194.538 -0.428168 196.17 0.451832C221.392 14.0118 252.762 21.2718 280.653 22.8418C285.314 23.1018 296.52 23.4085 314.272 23.7618C342.45 24.3218 370.464 31.6318 399.32 41.4218C406.396 43.8285 412.747 46.3052 418.373 48.8518C495.67 83.8518 550.887 151.922 567.579 233.502C581.683 302.472 565.413 372.582 525.347 429.742C483.208 489.862 412.994 531.162 338.498 539.162C227.582 551.082 125.093 497.252 72.5242 401.982C71.703 400.495 71.8467 400.399 72.9553 401.692C72.9964 401.745 73.2735 402.142 73.7868 402.882C127.998 481.222 225.724 518.332 320.175 502.112C421.093 484.782 503.626 406.932 514.353 305.832C521.539 238.062 493.782 171.542 442.773 125.772C431.389 115.562 420.734 107.072 407.604 101.452C392.555 95.0118 372.733 92.4918 359.737 102.892C350.242 110.492 341.66 123.102 333.879 133.422C331.467 136.632 327.391 139.892 323.48 142.272C315.391 147.202 307.179 151.222 299.901 157.962C298.464 159.292 297.088 159.722 295.333 159.052C294.997 158.925 294.806 158.692 294.758 158.352C293.615 150.912 294.949 144.209 298.761 138.242C301.666 133.692 307.548 129.652 310.905 126.082C313.923 122.882 315.744 119.045 316.366 114.572C316.91 110.562 315.822 105.922 315.217 101.442C314.957 99.4818 314.481 97.7985 313.79 96.3918C307.795 84.2652 297.468 79.8552 282.809 83.1618C274.843 84.9618 269.444 98.0518 267.575 104.942C266.59 108.582 268.53 112.032 267.278 115.172C264.39 122.425 261.43 129.605 258.398 136.712C258.38 136.754 258.35 136.791 258.312 136.818C258.274 136.846 258.229 136.863 258.182 136.868C258.135 136.873 258.088 136.866 258.044 136.847C258.001 136.829 257.964 136.799 257.936 136.762C252.201 128.888 247.359 120.589 243.411 111.862C238.73 101.542 246.377 85.5318 251.141 76.0718C251.173 76.0041 251.185 75.9284 251.173 75.8543C251.162 75.7802 251.128 75.7111 251.077 75.6555C251.025 75.6 250.958 75.5605 250.884 75.542C250.809 75.5236 250.731 75.527 250.658 75.5518C245.532 77.3852 240.215 78.8018 234.706 79.8018C217.323 82.9418 199.79 84.2818 182.106 83.8218C174.859 83.6352 168.57 81.4518 163.239 77.2718C160.375 75.0218 156.977 68.8518 161.001 66.2418C162.027 65.5752 163.838 65.1952 166.431 65.1018C187.064 64.3718 206.651 62.9718 225.857 56.9918Z" fill="#3A3134"/>
<path d="M54.72 646.76L7.68 622.16C6.64 621.44 6.12 620.44 6.12 619.16C6.12 618.6 6.24 618.04 6.48 617.48C6.72 616.92 7.12 616.48 7.68 616.16L54.72 591.44C55.84 590.96 56.76 591 57.48 591.56C58.2 592.04 58.64 592.68 58.8 593.48C58.96 594.28 58.92 595.12 58.68 596C58.44 596.8 57.8 597.48 56.76 598.04L16.68 618.92V619.28L56.76 640.16C57.8 640.72 58.44 641.4 58.68 642.2C58.92 643 58.96 643.84 58.8 644.72C58.64 645.52 58.2 646.2 57.48 646.76C56.76 647.24 55.84 647.24 54.72 646.76ZM102.457 651.2C102.457 651.2 102.017 650.08 101.137 647.84C100.337 645.52 99.2566 642.52 97.8966 638.84C96.6166 635.08 95.1366 631 93.4566 626.6C91.8566 622.12 90.2166 617.68 88.5366 613.28C86.9366 608.8 85.4566 604.72 84.0966 601.04C82.8166 597.36 81.7366 594.4 80.8566 592.16C80.0566 589.92 79.6566 588.8 79.6566 588.8C78.3766 585.52 77.0966 583.16 75.8166 581.72C74.5366 580.28 72.6166 579.32 70.0566 578.84C68.9366 578.6 68.1366 578.4 67.6566 578.24C67.2566 578.08 67.0566 577.36 67.0566 576.08C67.0566 574.72 67.5366 574 68.4966 573.92C69.4566 573.76 70.5766 573.68 71.8566 573.68C77.2166 573.76 81.3766 574.76 84.3366 576.68C87.2966 578.52 89.6566 581.72 91.4166 586.28L108.817 633.08H109.177L125.737 584.96C126.617 582.4 126.657 580.8 125.857 580.16C125.057 579.44 123.257 579.08 120.457 579.08C119.657 579.08 118.977 579 118.417 578.84C117.857 578.68 117.537 577.92 117.457 576.56C117.457 575.92 117.617 575.32 117.937 574.76C118.257 574.2 118.777 573.92 119.497 573.92C122.057 574 124.257 574.08 126.097 574.16C128.017 574.24 130.177 574.28 132.577 574.28C134.177 574.28 135.497 574.28 136.537 574.28C137.577 574.2 138.617 574.16 139.657 574.16C140.777 574.08 142.177 574 143.857 573.92C144.657 573.92 145.217 574.2 145.537 574.76C145.857 575.32 146.017 575.92 146.017 576.56C145.937 577.92 145.617 578.68 145.057 578.84C144.577 579 143.897 579.08 143.017 579.08C139.977 579.08 137.577 579.64 135.817 580.76C134.057 581.88 132.537 584.04 131.257 587.24C131.257 587.16 130.817 588.28 129.937 590.6C129.137 592.84 128.057 595.88 126.697 599.72C125.337 603.48 123.817 607.64 122.137 612.2C120.537 616.76 118.897 621.32 117.217 625.88C115.537 630.44 114.017 634.64 112.657 638.48C111.297 642.32 110.177 645.4 109.297 647.72C108.497 650.04 108.097 651.2 108.097 651.2H102.457ZM164.833 651.44C159.233 651.44 154.313 650.12 150.073 647.48C145.913 644.84 142.673 641.4 140.353 637.16C138.033 632.92 136.873 628.4 136.873 623.6C136.873 618.88 137.713 614.68 139.393 611C141.073 607.32 143.273 604.24 145.993 601.76C148.793 599.28 151.833 597.4 155.113 596.12C158.393 594.84 161.633 594.2 164.833 594.2C170.433 594.2 175.313 595.52 179.473 598.16C183.713 600.8 186.993 604.24 189.313 608.48C191.633 612.72 192.793 617.24 192.793 622.04C192.793 626.76 191.913 630.96 190.153 634.64C188.473 638.32 186.233 641.4 183.433 643.88C180.713 646.36 177.713 648.24 174.433 649.52C171.153 650.8 167.953 651.44 164.833 651.44ZM164.833 647C168.753 647 171.833 645.84 174.073 643.52C176.393 641.2 178.033 638.16 178.993 634.4C180.033 630.56 180.553 626.44 180.553 622.04C180.553 617.8 180.033 613.92 178.993 610.4C177.953 606.88 176.273 604.04 173.953 601.88C171.633 599.72 168.593 598.64 164.833 598.64C160.913 598.64 157.793 599.8 155.473 602.12C153.153 604.36 151.513 607.36 150.553 611.12C149.593 614.8 149.113 618.88 149.113 623.36C149.113 627.52 149.593 631.4 150.553 635C151.593 638.6 153.273 641.52 155.593 643.76C157.913 645.92 160.993 647 164.833 647ZM223.029 652.04C220.629 652.04 218.349 651.44 216.189 650.24C214.029 649.04 212.229 647.2 210.789 644.72C209.429 642.24 208.749 639.12 208.749 635.36V600.08L201.789 600.32C201.229 600.32 200.789 600.12 200.469 599.72C200.229 599.24 200.109 598.72 200.109 598.16C200.109 596.56 200.669 595.64 201.789 595.4C204.749 594.84 206.989 593.92 208.509 592.64C210.029 591.28 211.189 589.68 211.989 587.84C212.869 586 213.669 584 214.389 581.84C214.629 581.2 214.989 580.8 215.469 580.64C215.949 580.4 216.469 580.28 217.029 580.28C217.509 580.28 218.029 580.4 218.589 580.64C219.229 580.88 219.549 581.32 219.549 581.96L218.709 595.64L232.749 594.8C233.469 594.72 233.949 594.92 234.189 595.4C234.429 595.88 234.549 596.44 234.549 597.08C234.549 597.88 234.389 598.68 234.069 599.48C233.829 600.28 233.509 600.68 233.109 600.68L219.669 600.32V636.8C219.669 639.12 220.149 641.24 221.109 643.16C222.149 645.08 223.989 646.04 226.629 646.04C227.509 646.04 228.509 645.96 229.629 645.8C230.749 645.64 231.949 645.28 233.229 644.72C233.549 644.56 233.869 644.44 234.189 644.36C234.509 644.2 234.829 644.12 235.149 644.12C235.789 644.12 236.269 644.4 236.589 644.96C236.909 645.44 237.189 645.96 237.429 646.52C237.669 647.24 237.469 647.8 236.829 648.2C234.349 649.8 232.069 650.84 229.989 651.32C227.909 651.8 225.589 652.04 223.029 652.04ZM275.578 651.44C269.418 651.44 264.218 650.12 259.978 647.48C255.818 644.84 252.698 641.32 250.618 636.92C248.538 632.52 247.498 627.72 247.498 622.52C247.498 619 248.098 615.6 249.298 612.32C250.578 608.96 252.378 605.92 254.698 603.2C257.018 600.4 259.818 598.2 263.098 596.6C266.378 595 270.098 594.2 274.258 594.2C281.618 594.2 287.138 596.12 290.818 599.96C294.578 603.72 296.738 608.52 297.298 614.36C297.298 617.16 296.498 619 294.898 619.88C293.378 620.76 291.378 621.2 288.898 621.2H259.738C259.738 625.84 260.378 630 261.658 633.68C262.938 637.28 264.938 640.16 267.658 642.32C270.458 644.4 274.138 645.44 278.698 645.44C282.058 645.44 284.938 644.72 287.338 643.28C289.738 641.84 292.058 639.32 294.298 635.72C294.938 634.92 295.818 634.88 296.938 635.6C297.578 635.92 297.978 636.44 298.138 637.16C298.298 637.8 298.218 638.36 297.898 638.84C295.418 642.76 292.298 645.84 288.538 648.08C284.778 650.32 280.458 651.44 275.578 651.44ZM259.738 616.64H279.298C281.218 616.64 282.738 616.28 283.858 615.56C285.058 614.76 285.698 613.44 285.778 611.6C285.778 608.16 284.818 605.12 282.898 602.48C281.058 599.76 278.178 598.4 274.258 598.4C270.258 598.4 266.898 600 264.178 603.2C261.538 606.4 260.058 610.88 259.738 616.64ZM308.023 650.36C307.223 650.36 306.663 650.08 306.343 649.52C306.023 648.96 305.863 648.36 305.863 647.72C305.943 646.36 306.263 645.6 306.823 645.44C307.383 645.28 308.063 645.2 308.863 645.2C311.423 645.2 313.223 644.76 314.263 643.88C315.303 642.92 315.943 641.76 316.183 640.4C316.503 638.96 316.663 637.48 316.663 635.96V588.32C316.663 586.8 316.503 585.36 316.183 584C315.943 582.56 315.303 581.4 314.263 580.52C313.223 579.56 311.423 579.08 308.863 579.08C308.063 579.08 307.383 579 306.823 578.84C306.263 578.68 305.943 577.92 305.863 576.56C305.863 575.92 306.023 575.32 306.343 574.76C306.663 574.2 307.223 573.92 308.023 573.92C310.583 574 312.983 574.08 315.223 574.16C317.463 574.24 319.783 574.28 322.183 574.28C327.063 574.28 332.063 574.16 337.183 573.92C337.983 573.92 338.543 574.2 338.863 574.76C339.183 575.32 339.343 575.92 339.343 576.56C339.263 577.92 338.943 578.68 338.383 578.84C337.903 579 337.223 579.08 336.343 579.08C333.863 579.08 332.063 579.56 330.943 580.52C329.903 581.4 329.263 582.56 329.023 584C328.783 585.36 328.623 586.8 328.543 588.32V609.56H366.223V588.32C366.223 586.8 366.063 585.36 365.743 584C365.503 582.56 364.863 581.4 363.823 580.52C362.783 579.56 360.983 579.08 358.423 579.08C357.623 579.08 356.903 579 356.263 578.84C355.703 578.68 355.383 577.92 355.303 576.56C355.303 575.92 355.463 575.32 355.783 574.76C356.183 574.2 356.743 573.92 357.463 573.92C362.663 574.16 367.663 574.28 372.463 574.28C374.863 574.28 377.183 574.24 379.423 574.16C381.743 574.08 384.183 574 386.743 573.92C387.463 573.92 387.983 574.2 388.303 574.76C388.703 575.32 388.903 575.92 388.903 576.56C388.823 577.92 388.503 578.68 387.943 578.84C387.383 579 386.703 579.08 385.903 579.08C383.423 579.08 381.623 579.56 380.503 580.52C379.383 581.4 378.703 582.56 378.463 584C378.223 585.36 378.063 586.8 377.983 588.32V635.96C378.063 637.48 378.223 638.96 378.463 640.4C378.703 641.76 379.383 642.92 380.503 643.88C381.623 644.76 383.423 645.2 385.903 645.2C386.703 645.2 387.383 645.28 387.943 645.44C388.503 645.6 388.823 646.36 388.903 647.72C388.903 648.36 388.703 648.96 388.303 649.52C387.983 650.08 387.463 650.36 386.743 650.36C384.183 650.2 381.743 650.08 379.423 650C377.103 650 374.743 650 372.343 650C367.623 650 362.663 650.12 357.463 650.36C356.743 650.36 356.183 650.08 355.783 649.52C355.463 648.96 355.303 648.36 355.303 647.72C355.383 646.36 355.703 645.6 356.263 645.44C356.903 645.28 357.623 645.2 358.423 645.2C360.983 645.2 362.783 644.76 363.823 643.88C364.863 642.92 365.503 641.76 365.743 640.4C366.063 638.96 366.223 637.48 366.223 635.96V614.72H328.543V635.96C328.623 637.48 328.783 638.96 329.023 640.4C329.263 641.76 329.903 642.92 330.943 643.88C332.063 644.76 333.863 645.2 336.343 645.2C337.223 645.2 337.903 645.28 338.383 645.44C338.943 645.6 339.263 646.36 339.343 647.72C339.343 648.36 339.183 648.96 338.863 649.52C338.543 650.08 337.983 650.36 337.183 650.36C332.063 650.12 327.103 650 322.303 650C319.903 650 317.543 650 315.223 650C312.983 650.08 310.583 650.2 308.023 650.36ZM422.081 651.44C416.641 651.44 412.321 649.8 409.121 646.52C405.921 643.24 404.321 638.92 404.321 633.56V611.36C404.321 609.92 404.241 608.6 404.081 607.4C404.001 606.12 403.561 605.12 402.761 604.4C401.961 603.6 400.441 603.2 398.201 603.2C397.481 603.2 396.801 603.12 396.161 602.96C395.601 602.72 395.321 602 395.321 600.8C395.321 599.6 395.961 598.88 397.241 598.64C400.921 598.08 403.721 597.52 405.641 596.96C407.641 596.4 409.161 595.92 410.201 595.52C411.241 595.12 412.161 594.88 412.961 594.8C413.601 594.72 414.121 594.84 414.521 595.16C415.001 595.48 415.241 596.12 415.241 597.08V633.44C415.241 636.08 415.801 638.24 416.921 639.92C418.121 641.6 419.601 642.84 421.361 643.64C423.121 644.44 424.921 644.84 426.761 644.84C429.561 644.84 432.001 644.36 434.081 643.4C436.161 642.36 437.841 641.2 439.121 639.92C440.401 638.56 441.241 637.44 441.641 636.56V611.36C441.641 609.92 441.561 608.6 441.401 607.4C441.321 606.12 440.881 605.12 440.081 604.4C439.281 603.6 437.761 603.2 435.521 603.2C434.801 603.2 434.121 603.12 433.481 602.96C432.921 602.72 432.641 602 432.641 600.8C432.641 599.6 433.281 598.88 434.561 598.64C438.241 598.08 441.041 597.52 442.961 596.96C444.961 596.4 446.481 595.92 447.521 595.52C448.561 595.12 449.481 594.88 450.281 594.8C450.921 594.72 451.441 594.84 451.841 595.16C452.321 595.48 452.561 596.12 452.561 597.08V638.6C452.561 643.32 455.721 645.68 462.041 645.68C462.921 645.68 463.481 645.92 463.721 646.4C463.961 646.88 464.081 647.4 464.081 647.96C464.081 649.08 463.401 649.76 462.041 650L442.721 651.32C442.161 651.32 441.841 651.08 441.761 650.6C441.681 650.12 441.641 649.56 441.641 648.92V642.2H441.401C439.881 643.64 438.241 645.08 436.481 646.52C434.801 647.96 432.801 649.12 430.481 650C428.241 650.96 425.441 651.44 422.081 651.44ZM476.406 651.68C475.686 651.68 475.126 651.44 474.726 650.96C474.326 650.48 474.126 649.92 474.126 649.28V579.2C474.126 577.76 474.046 576.44 473.886 575.24C473.806 573.96 473.366 572.96 472.566 572.24C471.766 571.44 470.246 571.04 468.006 571.04C467.286 571.04 466.606 570.96 465.966 570.8C465.406 570.56 465.126 569.84 465.126 568.64C465.126 567.44 465.766 566.72 467.046 566.48C470.726 565.92 473.526 565.36 475.446 564.8C477.446 564.24 478.966 563.76 480.006 563.36C481.046 562.96 481.966 562.72 482.766 562.64C483.406 562.56 483.926 562.68 484.326 563C484.806 563.32 485.046 563.96 485.046 564.92V601.16H485.406C487.806 598.76 490.486 597 493.446 595.88C496.406 594.76 499.246 594.2 501.966 594.2C506.686 594.2 510.926 595.4 514.686 597.8C518.526 600.2 521.566 603.52 523.806 607.76C526.046 611.92 527.166 616.8 527.166 622.4C527.166 627.84 525.886 632.76 523.326 637.16C520.766 641.56 517.406 645.04 513.246 647.6C509.086 650.16 504.566 651.44 499.686 651.44C492.566 651.44 486.406 649.48 481.206 645.56H480.606C480.046 646.76 479.486 648.08 478.926 649.52C478.446 650.96 477.606 651.68 476.406 651.68ZM498.606 647.36C503.406 647.36 507.326 645.16 510.366 640.76C513.406 636.36 514.926 630.4 514.926 622.88C514.926 619.12 514.326 615.52 513.126 612.08C512.006 608.64 510.166 605.8 507.606 603.56C505.126 601.32 501.846 600.2 497.766 600.2C495.046 600.2 492.646 600.68 490.566 601.64C488.486 602.6 486.646 603.96 485.046 605.72V637.4C485.286 638.52 485.926 639.88 486.966 641.48C488.086 643 489.606 644.36 491.526 645.56C493.446 646.76 495.806 647.36 498.606 647.36ZM536.165 673.4C535.365 673.24 534.685 672.8 534.125 672.08C533.565 671.44 533.365 670.72 533.525 669.92L565.925 567.8C566.245 566.92 566.765 566.28 567.485 565.88C568.285 565.48 569.085 565.36 569.885 565.52C570.765 565.68 571.485 566.12 572.045 566.84C572.605 567.56 572.805 568.32 572.645 569.12L540.005 671.24C539.685 672.04 539.125 672.6 538.325 672.92C537.605 673.32 536.885 673.48 536.165 673.4ZM588.311 646.76C587.271 647.24 586.351 647.24 585.551 646.76C584.831 646.2 584.391 645.52 584.231 644.72C584.071 643.84 584.111 643 584.351 642.2C584.591 641.4 585.231 640.72 586.271 640.16L626.351 619.28V618.92L586.271 598.04C585.231 597.48 584.591 596.8 584.351 596C584.111 595.12 584.071 594.28 584.231 593.48C584.391 592.68 584.831 592.04 585.551 591.56C586.351 591 587.271 590.96 588.311 591.44L635.351 616.16C635.911 616.48 636.311 616.92 636.551 617.48C636.791 618.04 636.911 618.6 636.911 619.16C636.911 620.44 636.391 621.44 635.351 622.16L588.311 646.76Z" fill="#EF316D"/>
<path d="M324.635 319.31C320.075 332.53 315.572 345.38 311.125 357.86C309.679 361.907 308.392 366.587 307.265 371.9C307.412 371.46 307.422 371.063 307.295 370.71C307.277 370.651 307.24 370.601 307.19 370.565C307.141 370.53 307.081 370.511 307.019 370.513C306.956 370.514 306.896 370.534 306.845 370.572C306.794 370.609 306.756 370.661 306.735 370.72L267.335 484.52C267.222 484.84 266.995 485 266.655 485L221.505 484.99C221.258 484.99 221.017 484.92 220.811 484.786C220.605 484.653 220.443 484.463 220.345 484.24L172.045 373.45C172.01 373.372 171.995 373.286 172.002 373.201C172.008 373.115 172.036 373.033 172.083 372.961C172.13 372.889 172.194 372.831 172.269 372.79C172.345 372.75 172.43 372.729 172.515 372.73H211.695C211.85 372.729 212.001 372.775 212.131 372.86C212.26 372.945 212.363 373.067 212.425 373.21L243.325 441.92C243.34 441.957 243.366 441.989 243.4 442.01C243.433 442.032 243.473 442.042 243.512 442.04C243.552 442.038 243.59 442.023 243.621 441.998C243.652 441.973 243.675 441.939 243.685 441.9L310.955 235.43C310.995 235.306 311.073 235.197 311.177 235.12C311.281 235.043 311.407 235.001 311.535 235H353.235C353.635 235 353.769 235.19 353.635 235.57L324.635 319.31Z" fill="#EF316D"/>
</g>
<defs>
<clipPath id="clip0_552_5999">
<rect width="644" height="678" fill="white"/>
</clipPath>
</defs>
</svg>
