<?xml version="1.0" standalone="no"?>
<!DOCTYPE svg PUBLIC "-//W3C//DTD SVG 20010904//EN"
 "http://www.w3.org/TR/2001/REC-SVG-20010904/DTD/svg10.dtd">
<svg version="1.0" xmlns="http://www.w3.org/2000/svg"
 width="280.000000pt" height="280.000000pt" viewBox="0 0 280.000000 280.000000"
 preserveAspectRatio="xMidYMid meet">
<metadata>
Created by potrace 1.14, written by Peter Selinger 2001-2017
</metadata>
<g transform="translate(0.000000,280.000000) scale(0.100000,-0.100000)"
fill="#000000" stroke="none">
<path d="M766 2788 c-11 -36 -13 -57 -5 -52 5 3 9 -1 9 -8 0 -7 18 -24 40 -38
22 -14 40 -29 40 -34 0 -5 -8 -2 -18 7 -16 15 -19 15 -19 2 0 -8 3 -13 5 -10
3 3 12 -1 20 -7 7 -7 24 -13 35 -15 17 -2 19 -1 7 6 -8 5 -18 7 -24 4 -5 -3
-6 -1 -2 5 5 9 13 9 29 0 12 -7 25 -12 29 -13 3 0 9 -3 13 -7 8 -8 -202 -1
-215 7 -5 3 -29 8 -53 11 -32 4 -47 2 -56 -10 -8 -9 -10 -16 -6 -16 4 0 2 -7
-5 -15 -11 -13 -10 -14 4 -9 11 4 16 2 14 -7 -2 -8 3 -13 10 -11 6 1 12 -4 12
-12 0 -8 7 -17 16 -20 22 -8 26 -8 19 4 -3 6 1 7 10 3 14 -5 14 -8 3 -15 -9
-6 -3 -8 20 -5 17 2 32 1 33 -2 0 -3 2 -14 4 -23 2 -14 -4 -18 -28 -19 -18 -1
-41 -3 -52 -4 -11 -1 -27 -3 -35 -3 -11 -2 -16 -13 -15 -36 0 -22 4 -32 13
-29 7 3 12 -2 12 -12 0 -12 6 -16 20 -12 11 3 23 1 26 -4 3 -5 10 -6 16 -3 7
5 9 1 5 -9 -4 -11 -2 -14 8 -10 8 3 13 8 11 12 -3 4 4 7 15 7 21 0 26 -12 7
-18 -7 -3 -5 -7 6 -11 9 -4 15 -3 12 2 -3 5 2 15 11 22 9 8 14 9 10 3 -4 -7 3
-14 18 -17 14 -2 28 0 32 6 3 6 1 7 -5 3 -7 -4 -12 -3 -12 2 0 5 14 9 30 8 22
0 29 -5 25 -16 -4 -11 -1 -10 9 3 15 20 61 24 50 5 -4 -7 3 -2 16 10 15 17 26
20 33 13 7 -7 14 -5 24 7 12 16 13 16 7 0 -3 -10 -3 -18 1 -18 4 0 14 8 21 18
10 12 9 3 -3 -33 -9 -27 -21 -56 -27 -64 -8 -11 -8 -13 2 -7 16 10 16 -35 0
-53 -7 -8 -8 -11 -3 -9 6 3 15 0 22 -7 10 -11 10 -15 0 -18 -7 -3 -3 -6 7 -6
19 -1 19 -1 0 -23 -16 -19 -16 -20 -1 -9 20 16 27 12 30 -17 0 -11 5 -18 9
-16 5 3 12 -5 17 -18 7 -16 10 -18 10 -6 1 14 17 51 53 122 6 12 6 16 0 12
-12 -7 -10 13 1 32 5 6 5 17 2 22 -3 6 -1 10 4 10 6 0 11 7 11 15 0 8 5 15 10
15 6 0 9 3 8 8 -3 8 5 12 23 12 8 0 7 -6 -2 -17 -13 -16 -12 -17 3 -4 10 7 16
17 13 21 -2 4 7 12 21 19 14 6 23 7 19 2 -3 -6 4 -15 15 -21 12 -6 20 -7 20
-1 0 5 -6 11 -12 14 -7 3 -3 4 9 4 15 -1 20 -6 17 -20 -2 -14 0 -16 10 -8 17
14 29 2 14 -16 -8 -10 -8 -12 4 -8 11 4 18 -2 23 -22 12 -40 12 -47 0 -55 -6
-5 -6 -8 2 -8 21 0 1 -45 -38 -82 -22 -21 -39 -41 -39 -45 0 -3 -8 -15 -17
-26 -10 -11 -12 -17 -5 -13 11 7 12 4 3 -13 -7 -13 -8 -21 -2 -21 6 0 8 -7 5
-15 -9 -22 32 -14 52 11 8 10 13 13 9 7 -11 -22 6 -14 27 12 11 14 24 23 28
20 5 -3 18 3 30 15 11 11 25 20 30 20 5 0 10 7 10 16 0 8 5 12 10 9 6 -3 10 1
10 9 0 8 9 21 20 29 11 8 17 17 12 22 -4 4 4 4 18 1 14 -4 21 -4 15 1 -13 11
-18 36 -5 28 5 -3 10 -2 10 4 0 18 32 42 48 36 12 -4 13 -3 2 10 -7 8 -11 15
-9 16 31 6 38 6 35 0 -3 -4 5 -7 17 -8 12 0 16 1 10 4 -7 3 -13 9 -13 14 0 7
6 7 17 0 12 -6 21 -5 31 7 7 10 11 11 7 5 -3 -7 -1 -13 4 -13 6 0 11 4 11 9 0
13 28 7 43 -9 10 -12 9 -12 -5 -2 -11 9 -18 10 -23 2 -4 -6 -3 -10 2 -9 4 1
10 0 13 -1 3 -1 15 -3 27 -4 19 -2 21 0 10 13 -10 14 -10 14 5 3 9 -8 22 -11
27 -8 5 4 12 2 16 -4 4 -6 10 -8 15 -5 5 3 17 -6 28 -20 20 -25 40 -35 26 -13
-4 7 -3 8 5 4 9 -6 9 -11 0 -22 -7 -9 -8 -14 -3 -13 26 5 54 -2 51 -13 -1 -7
3 -12 9 -11 13 2 52 -37 68 -68 6 -12 18 -24 26 -27 9 -3 7 2 -5 12 -20 17
-20 17 3 6 19 -9 21 -14 11 -26 -10 -12 -9 -13 5 -8 11 4 16 1 16 -10 0 -9 7
-16 16 -16 14 0 14 -3 4 -15 -7 -9 -10 -18 -6 -22 3 -3 6 -1 6 5 0 7 7 12 16
12 14 0 15 -2 3 -17 -12 -14 -12 -15 0 -9 17 11 33 -12 25 -36 -3 -10 0 -18 6
-18 6 0 8 5 5 10 -3 6 -2 10 4 10 17 0 24 -42 10 -52 -10 -6 -7 -7 9 -3 21 6
23 4 17 -17 -4 -16 -3 -19 3 -9 8 11 12 9 22 -9 10 -18 10 -21 -2 -15 -7 4 -3
-2 10 -14 26 -26 29 -39 5 -20 -10 7 -6 0 10 -15 29 -29 35 -41 15 -31 -7 4
-5 0 5 -8 14 -11 15 -16 5 -20 -11 -4 -11 -6 0 -6 7 -1 10 -5 7 -11 -3 -5 -1
-10 5 -10 6 0 8 -5 5 -10 -3 -6 -1 -10 4 -10 12 0 15 -36 4 -43 -5 -2 -2 -2 6
0 9 2 12 -3 8 -17 -3 -11 -1 -18 4 -14 13 8 11 -10 -3 -25 -10 -11 -10 -13 0
-7 6 4 13 2 13 -3 3 -26 4 -30 11 -37 4 -4 3 -13 -3 -21 -9 -10 -8 -13 1 -13
8 0 11 -15 8 -49 -1 -27 0 -47 5 -44 4 2 7 -1 7 -6 0 -6 -6 -11 -12 -11 -9 0
-9 -3 -3 -8 13 -9 13 -42 1 -61 -6 -10 -5 -12 2 -7 7 4 12 3 12 -3 0 -5 -5
-13 -10 -16 -8 -5 -7 -11 1 -21 9 -11 8 -14 -7 -14 -11 0 -15 -3 -9 -8 12 -8
18 -55 7 -48 -4 2 -7 -8 -7 -23 -1 -42 -27 -141 -38 -141 -5 0 -7 -7 -3 -15 3
-8 1 -15 -4 -15 -6 0 -9 -3 -8 -7 3 -17 -15 -62 -23 -57 -5 3 -6 -1 -4 -9 3
-7 -5 -29 -17 -48 -13 -19 -32 -50 -42 -69 -11 -18 -25 -41 -32 -49 -7 -9 -22
-27 -33 -41 l-20 -25 -1 456 c0 251 -3 459 -7 463 -4 4 -8 46 -8 94 l0 87
-847 3 -847 2 -4 -102 c-3 -57 -6 -329 -8 -606 -1 -276 -5 -502 -8 -502 -13 0
-108 102 -155 165 -15 20 -15 20 -9 -3 3 -12 9 -22 13 -22 9 0 25 -40 22 -53
-1 -5 2 -6 8 -2 9 6 14 -7 11 -28 0 -4 4 -7 10 -7 6 0 8 -7 5 -16 -6 -15 -4
-15 11 -3 15 12 16 12 10 -4 -4 -12 -3 -16 4 -11 8 4 9 -1 4 -17 -4 -14 -3
-19 2 -12 6 9 16 5 35 -16 21 -22 24 -31 15 -40 -9 -10 -9 -12 2 -9 7 2 16 -3
19 -11 3 -9 0 -11 -8 -6 -10 6 -11 4 -4 -6 5 -8 10 -34 10 -59 1 -25 2 -51 3
-57 1 -9 20 -13 59 -13 78 0 133 -10 125 -23 -4 -6 0 -8 10 -4 12 4 14 2 10
-11 -6 -14 -4 -15 9 -4 13 10 18 10 24 1 4 -7 3 -9 -3 -6 -6 4 -13 1 -16 -6
-3 -7 5 -13 19 -13 16 -1 21 2 17 10 -4 6 1 5 11 -3 11 -9 15 -23 12 -35 -5
-21 -5 -21 9 -2 10 13 15 15 15 6 0 -7 3 -10 6 -7 9 8 84 -33 84 -46 0 -5 7
-7 15 -4 8 4 17 1 21 -5 4 -6 3 -8 -4 -4 -6 3 -13 2 -16 -3 -7 -10 13 -9 30 2
7 4 15 0 18 -9 4 -10 2 -13 -7 -8 -7 4 -7 1 2 -7 10 -11 15 -11 18 -1 3 6 9
12 14 12 6 0 7 -5 3 -12 -5 -8 -2 -9 9 -5 9 3 19 1 23 -5 4 -6 3 -8 -3 -5 -5
3 -10 0 -10 -8 0 -12 3 -12 20 0 14 10 25 11 32 5 7 -6 24 -11 39 -12 14 -1
26 -8 26 -14 0 -7 7 -15 16 -18 13 -5 14 -4 6 7 -9 11 -7 13 11 11 12 -1 22
-3 22 -4 0 -2 14 -4 30 -6 17 -2 37 -5 46 -6 9 -1 15 -8 12 -15 -3 -7 -1 -13
5 -13 6 0 12 6 14 12 3 9 9 8 22 -5 20 -20 34 -23 18 -4 -8 10 -6 13 8 13 10
0 17 -3 14 -7 -7 -11 19 -17 41 -9 11 4 26 3 34 -3 20 -16 40 -17 34 -1 -3 9
2 12 17 9 13 -2 31 0 41 6 15 7 17 6 13 -5 -4 -10 0 -14 13 -12 10 2 23 -1 29
-6 7 -5 14 -3 17 5 4 10 -2 13 -20 11 -14 -1 -22 0 -18 4 3 3 27 7 53 8 26 1
47 2 47 4 0 1 8 3 18 5 9 2 15 -1 12 -5 -3 -5 -1 -11 5 -15 5 -3 10 2 10 12 1
17 2 17 13 1 12 -15 14 -15 25 3 9 14 19 18 34 13 15 -4 18 -3 13 6 -5 8 -4
11 3 6 5 -3 13 0 16 6 3 7 3 2 0 -12 -4 -22 -4 -23 6 -7 18 29 52 37 75 18 18
-15 19 -15 7 1 -8 10 -9 19 -3 22 5 3 12 0 14 -6 3 -8 6 -6 6 4 1 12 6 15 18
11 12 -5 14 -3 8 7 -6 10 -4 11 6 4 20 -12 40 -14 33 -3 -3 5 -10 6 -16 3 -6
-4 -8 -3 -5 3 4 6 18 9 33 7 19 -2 24 1 20 12 -4 12 -2 12 14 4 15 -8 18 -7
14 3 -3 8 6 18 21 25 15 7 24 8 20 2 -9 -14 6 -12 35 6 l25 15 -25 -6 c-19 -5
-22 -4 -10 4 8 6 23 11 33 11 10 0 16 4 12 9 -3 6 3 8 15 6 11 -2 19 1 17 7
-1 6 4 13 12 16 9 3 11 0 6 -8 -6 -9 -4 -11 4 -6 7 5 10 14 7 22 -3 7 0 16 6
20 6 4 8 3 4 -4 -3 -6 -2 -13 4 -17 5 -3 10 3 10 14 0 24 16 36 26 20 5 -8 3
-9 -6 -4 -9 5 -11 4 -6 -4 10 -16 34 3 47 36 5 13 17 26 26 30 10 4 24 15 31
25 7 10 20 18 28 18 8 0 12 4 9 10 -6 9 8 14 28 11 5 -1 6 3 2 9 -9 14 52 89
81 100 17 7 22 14 17 26 -5 13 -2 16 9 12 8 -4 15 -1 15 8 0 7 -5 10 -11 7 -6
-4 -5 1 3 10 7 9 18 14 23 11 5 -3 9 0 7 7 -3 25 1 39 11 39 5 0 7 -8 4 -17
-5 -14 -4 -15 4 -4 6 8 9 23 7 33 -2 10 2 18 10 18 8 0 12 6 9 14 -3 7 6 26
20 41 14 15 26 33 26 38 0 6 -7 2 -16 -9 -14 -18 -15 -18 -4 4 8 16 17 22 28
17 13 -5 14 -3 5 6 -9 9 -7 16 10 31 12 10 18 17 12 16 -5 -2 -10 2 -10 7 0 6
3 9 7 8 4 -2 5 6 3 17 -3 14 2 20 13 20 15 0 15 2 2 10 -12 7 -12 12 -2 22 6
6 12 23 12 36 0 22 2 23 17 11 15 -13 15 -12 2 9 -13 21 -12 25 6 39 18 14 18
15 1 9 -17 -6 -17 -4 -4 16 7 13 13 40 13 61 0 20 3 37 6 37 4 0 5 82 3 183
-5 232 -4 217 -13 217 -4 0 -8 10 -8 23 -1 22 -5 37 -15 67 -3 8 -11 33 -17
55 -13 41 -27 77 -42 107 -5 10 -9 24 -9 32 0 8 -3 16 -7 18 -17 7 -51 87 -39
92 6 2 3 5 -7 5 -10 1 -25 16 -34 36 -9 19 -20 35 -25 35 -4 0 -8 6 -8 13 0 8
-11 24 -25 37 -13 12 -22 27 -19 31 3 5 -2 9 -10 9 -9 0 -16 4 -16 9 0 13
-115 129 -165 166 -22 16 -42 32 -45 36 -14 16 -104 71 -175 107 -72 37 -199
88 -230 92 -3 0 -24 8 -47 16 -73 26 -208 45 -338 49 -151 5 -209 11 -298 30
-67 14 -177 50 -197 65 -22 17 -55 21 -59 8z m4 -267 c0 9 3 10 8 4 8 -12 45
-14 53 -3 3 4 13 2 23 -5 15 -11 12 -12 -23 -11 -23 0 -41 -2 -41 -6 0 -16
-43 -4 -46 13 -2 15 0 16 12 6 11 -9 14 -8 14 2z m506 -1073 l-71 -212 -143
-1 -142 0 0 213 0 212 213 0 214 0 -71 -212z m259 -33 c0 -96 -2 -175 -5 -176
-24 -4 -103 -4 -110 1 -5 3 15 76 46 165 68 199 63 185 66 185 2 0 3 -79 3
-175z m-461 -564 c3 -4 -9 -51 -26 -105 -36 -112 -29 -115 -93 33 l-33 79 74
0 c41 0 76 -3 78 -7z m461 -206 c0 -115 3 -215 7 -221 4 -6 22 -9 40 -6 18 2
31 2 28 -1 -9 -10 -180 -57 -224 -62 -22 -2 -52 -7 -66 -10 -32 -7 -219 -7
-284 0 -65 7 -212 40 -261 59 l-40 15 93 0 c50 1 92 5 92 10 0 4 45 8 100 8
56 0 105 4 109 9 5 5 37 92 71 194 35 102 67 192 71 202 8 14 26 16 136 15
l128 -2 0 -210z m598 -220 c-3 -9 -8 -14 -10 -11 -3 3 -2 9 2 15 9 16 15 13 8
-4z m-826 -277 c-3 -8 -6 -5 -6 6 -1 11 2 17 5 13 3 -3 4 -12 1 -19z"/>
<path d="M955 2390 c-3 -5 -1 -10 4 -10 6 0 11 5 11 10 0 6 -2 10 -4 10 -3 0
-8 -4 -11 -10z"/>
<path d="M655 2380 c-3 -5 -1 -10 4 -10 6 0 11 5 11 10 0 6 -2 10 -4 10 -3 0
-8 -4 -11 -10z"/>
<path d="M1175 2263 c-37 -89 -49 -113 -58 -113 -4 0 -6 -4 -3 -9 3 -5 -14
-59 -39 -120 -25 -61 -45 -113 -45 -116 0 -3 89 -5 198 -5 l197 0 53 130 c28
71 52 134 52 140 0 14 -13 12 -36 -6 -10 -8 -12 -12 -4 -8 8 4 4 -4 -10 -19
-14 -15 -29 -27 -35 -27 -5 0 -21 -12 -34 -25 -24 -26 -48 -34 -35 -12 5 8 2
8 -9 -2 -20 -16 -23 -25 -4 -15 23 14 1 -5 -36 -30 -42 -29 -52 -32 -41 -13 5
8 2 7 -9 -2 -15 -12 -19 -12 -32 5 -17 23 -18 29 -4 77 5 20 27 55 49 77 21
21 41 47 44 57 6 18 -6 24 -126 68 -13 5 -21 -3 -33 -32z"/>
<path d="M1795 2289 c-4 -5 -4 -13 -1 -16 3 -4 6 0 6 8 0 11 2 11 10 -1 6 -9
10 -10 10 -3 0 17 -17 25 -25 12z"/>
<path d="M1830 2280 c0 -5 5 -10 11 -10 5 0 7 -5 3 -12 -4 -7 -3 -8 5 -4 9 6
9 11 0 22 -14 17 -19 18 -19 4z"/>
<path d="M1559 2253 c-13 -16 -12 -17 4 -4 9 7 17 15 17 17 0 8 -8 3 -21 -13z"/>
<path d="M1953 2186 c0 -8 5 -14 11 -13 6 1 10 -3 9 -9 -1 -6 5 -11 13 -11 10
0 9 7 -8 24 -25 27 -25 27 -25 9z"/>
<path d="M310 625 c0 -5 5 -17 10 -25 5 -8 10 -10 10 -5 0 6 -5 17 -10 25 -5
8 -10 11 -10 5z"/>
<path d="M2325 610 c-10 -11 -15 -20 -11 -20 11 0 39 30 34 36 -3 2 -13 -5
-23 -16z"/>
<path d="M2295 569 c-4 -6 -5 -12 -2 -15 2 -3 7 2 10 11 7 17 1 20 -8 4z"/>
<path d="M2165 451 c-3 -5 0 -13 6 -17 7 -4 9 -3 5 4 -3 5 0 13 6 15 9 4 10 6
1 6 -6 1 -14 -3 -18 -8z"/>
<path d="M675 310 c-3 -5 -1 -10 4 -10 6 0 11 5 11 10 0 6 -2 10 -4 10 -3 0
-8 -4 -11 -10z"/>
<path d="M700 301 c0 -6 7 -11 15 -11 7 0 19 -8 25 -17 6 -10 10 -12 8 -4 -5
19 -48 48 -48 32z"/>
<path d="M915 200 c3 -5 8 -10 11 -10 2 0 4 5 4 10 0 6 -5 10 -11 10 -5 0 -7
-4 -4 -10z"/>
<path d="M950 190 c0 -6 7 -10 15 -10 8 0 15 2 15 4 0 2 -7 6 -15 10 -8 3 -15
1 -15 -4z"/>
<path d="M1030 180 c0 -5 5 -10 11 -10 5 0 7 5 4 10 -3 6 -8 10 -11 10 -2 0
-4 -4 -4 -10z"/>
<path d="M1067 173 c-4 -3 -7 -11 -7 -17 0 -6 5 -4 10 4 6 9 13 11 18 5 4 -5
14 -11 22 -13 10 -1 9 2 -4 13 -22 17 -29 18 -39 8z"/>
</g>
</svg>
